<svg width="24" height="24" viewBox="0 0 24 24" fill="none" xmlns="http://www.w3.org/2000/svg">
<path d="M12.0719 3.85719C12.2313 3.85719 12.3899 3.86176 12.5476 3.87091C12.6624 3.87365 12.7755 3.89942 12.8801 3.9467C12.9848 3.99397 13.0788 4.06179 13.1567 4.14612C13.2347 4.23044 13.2948 4.32957 13.3337 4.4376C13.3726 4.54563 13.3894 4.66038 13.3831 4.77502C13.3767 4.88966 13.3475 5.00187 13.2969 5.10497C13.2464 5.20808 13.1757 5.29999 13.089 5.37524C13.0023 5.4505 12.9013 5.50757 12.7921 5.54306C12.683 5.57855 12.5677 5.59174 12.4534 5.58186C11.18 5.51072 9.91201 5.7961 8.7919 6.40592C7.67179 7.01574 6.74393 7.92584 6.11258 9.03395C5.48123 10.1421 5.1714 11.4043 5.21791 12.6788C5.26443 13.9533 5.66543 15.1896 6.37588 16.2487C6.51817 16.4605 6.55846 16.7253 6.48731 16.9688L6.05015 18.4491L7.53137 18.0145L7.6248 17.9923C7.84327 17.9537 8.06819 18.0013 8.25227 18.1251C9.31142 18.8356 10.5477 19.2366 11.8222 19.2831C13.0967 19.3296 14.3589 19.0198 15.467 18.3884C16.5752 17.7571 17.4853 16.8292 18.0951 15.7091C18.7049 14.589 18.9903 13.321 18.9191 12.0476C18.9093 11.9333 18.9225 11.818 18.9579 11.7089C18.9934 11.5997 19.0505 11.4987 19.1258 11.412C19.201 11.3253 19.2929 11.2546 19.396 11.2041C19.4991 11.1535 19.6113 11.1243 19.726 11.1179C19.8406 11.1116 19.9554 11.1284 20.0634 11.1673C20.1714 11.2062 20.2706 11.2663 20.3549 11.3443C20.4392 11.4222 20.507 11.5162 20.5543 11.6209C20.6016 11.7255 20.6274 11.8386 20.6301 11.9534C20.6392 12.1111 20.6438 12.2697 20.6438 12.4291C20.6438 17.1634 16.8062 21.001 12.0719 21.001C10.5108 21.0024 8.97921 20.5758 7.64366 19.7675L5.02752 20.5373C4.87986 20.5806 4.72326 20.5833 4.57417 20.5452C4.42507 20.5072 4.28898 20.4296 4.18017 20.3208C4.07136 20.212 3.99384 20.0759 3.95576 19.9268C3.91768 19.7777 3.92044 19.6211 3.96374 19.4735L4.73264 16.8565C3.92481 15.5211 3.49849 13.9898 3.5 12.4291C3.5 7.69483 7.33765 3.85719 12.0719 3.85719ZM9.07174 11.1433C9.41275 11.1433 9.7398 11.2788 9.98093 11.5199C10.2221 11.761 10.3575 12.0881 10.3575 12.4291C10.3575 12.7701 10.2221 13.0972 9.98093 13.3383C9.7398 13.5794 9.41275 13.7149 9.07174 13.7149C8.73073 13.7149 8.40369 13.5794 8.16255 13.3383C7.92142 13.0972 7.78596 12.7701 7.78596 12.4291C7.78596 12.0881 7.92142 11.761 8.16255 11.5199C8.40369 11.2788 8.73073 11.1433 9.07174 11.1433ZM15.0721 11.1433C15.4131 11.1433 15.7401 11.2788 15.9813 11.5199C16.2224 11.761 16.3579 12.0881 16.3579 12.4291C16.3579 12.7701 16.2224 13.0972 15.9813 13.3383C15.7401 13.5794 15.4131 13.7149 15.0721 13.7149C14.7311 13.7149 14.404 13.5794 14.1629 13.3383C13.9218 13.0972 13.7863 12.7701 13.7863 12.4291C13.7863 12.0881 13.9218 11.761 14.1629 11.5199C14.404 11.2788 14.7311 11.1433 15.0721 11.1433ZM18.0722 3C18.251 3.00007 18.4254 3.05606 18.5708 3.16011C18.7162 3.26417 18.8254 3.4111 18.8831 3.58032L18.9946 3.90434C19.2517 4.65781 19.8432 5.25012 20.5975 5.50728L20.9207 5.61786C21.0897 5.67578 21.2364 5.78508 21.3403 5.93047C21.4442 6.07586 21.5 6.25008 21.5 6.42876C21.5 6.60744 21.4442 6.78166 21.3403 6.92705C21.2364 7.07244 21.0897 7.18174 20.9207 7.23966L20.5967 7.3511C19.8432 7.60826 19.2509 8.19972 18.9937 8.95404L18.8831 9.27721C18.8252 9.44624 18.7159 9.59295 18.5705 9.69682C18.4251 9.80068 18.2509 9.85652 18.0722 9.85652C17.8936 9.85652 17.7193 9.80068 17.5739 9.69682C17.4286 9.59295 17.3193 9.44624 17.2613 9.27721L17.1499 8.95319C17.023 8.58129 16.8125 8.24343 16.5346 7.96556C16.2567 7.68768 15.9189 7.47719 15.547 7.35024L15.2238 7.23966C15.0548 7.18174 14.9081 7.07244 14.8042 6.92705C14.7003 6.78166 14.6445 6.60744 14.6445 6.42876C14.6445 6.25008 14.7003 6.07586 14.8042 5.93047C14.9081 5.78508 15.0548 5.67578 15.2238 5.61786L15.5478 5.50642C16.3013 5.24927 16.8936 4.65781 17.1508 3.90348L17.2613 3.58032L17.3145 3.45517C17.3875 3.31762 17.4967 3.20257 17.6302 3.12238C17.7637 3.04218 17.9165 2.99988 18.0722 3ZM18.0722 5.73958C17.8695 5.99477 17.6382 6.22599 17.3831 6.42876C17.6396 6.63163 17.8694 6.86107 18.0722 7.11709C18.2757 6.86164 18.5051 6.6322 18.7606 6.42876C18.5057 6.22594 18.2747 5.99472 18.0722 5.73958Z" fill="#141414"/>
</svg>
