<svg width="24" height="24" viewBox="0 0 24 24" fill="none" xmlns="http://www.w3.org/2000/svg">
<path d="M13.375 19H8.29738C7.31912 19 6.82912 19 6.4555 18.8092C6.12623 18.6415 5.85853 18.3738 5.69075 18.0445C5.5 17.67 5.5 17.18 5.5 16.2V7.8C5.5 6.82 5.5 6.33 5.69075 5.9555C5.85875 5.62563 6.12563 5.35875 6.4555 5.19075C6.83 5 7.32 5 8.3 5H16.7C17.68 5 18.17 5 18.5436 5.19075C18.8735 5.35875 19.1412 5.62563 19.3092 5.9555C19.5 6.32912 19.5 6.81912 19.5 7.79738V12.875M13.375 19C13.6253 18.9974 13.7827 18.9877 13.9341 18.9519C14.1138 18.9081 14.2824 18.8381 14.4399 18.7419C14.6166 18.6334 14.768 18.4829 15.0699 18.1801L18.6801 14.5707C18.9829 14.268 19.1334 14.1158 19.2419 13.9399C19.3381 13.7818 19.4081 13.6129 19.4519 13.4332C19.4869 13.2827 19.4974 13.1253 19.5 12.875M13.375 19V14.275C13.375 13.785 13.375 13.54 13.4704 13.3527C13.5543 13.1881 13.6881 13.0543 13.8527 12.9704C14.04 12.875 14.285 12.875 14.775 12.875H19.5" stroke="#141414" stroke-width="2" stroke-linecap="round" stroke-linejoin="round"/>
</svg>
