<svg width="22" height="20" viewBox="0 0 22 20" fill="none" xmlns="http://www.w3.org/2000/svg">
<path d="M10.75 13.25V18.25V13.25Z" fill="#141414"/>
<path d="M10.75 13.25V18.25" stroke="#141414" stroke-width="1.5" stroke-linecap="round"/>
<path d="M4.73 1.03507C3.038 0.713067 2.192 0.552067 1.47 1.17007C0.75 1.78707 0.75 2.79007 0.75 4.79607V12.0051C0.75 13.8391 0.75 14.7561 1.213 15.3291C1.675 15.9011 2.693 16.0951 4.731 16.4831C6.546 16.8291 7.963 17.3791 8.989 17.9331C9.999 18.4781 10.503 18.7501 10.75 18.7501C10.997 18.7501 11.502 18.4781 12.51 17.9331C13.537 17.3801 14.954 16.8291 16.77 16.4831C18.806 16.0951 19.825 15.9011 20.287 15.3291C20.75 14.7561 20.75 13.8391 20.75 12.0051V4.79607C20.75 2.79007 20.75 1.78707 20.03 1.17007C19.308 0.552067 18.462 0.713067 16.77 1.03507" stroke="#141414" stroke-width="1.5" stroke-linecap="round" stroke-linejoin="round"/>
<path d="M10 8.75C10 8.55109 9.92098 8.36032 9.78033 8.21967C9.63968 8.07902 9.44891 8 9.25 8C9.05109 8 8.86032 8.07902 8.71967 8.21967C8.57902 8.36032 8.5 8.55109 8.5 8.75H10ZM8.5 10.75C8.5 10.9489 8.57902 11.1397 8.71967 11.2803C8.86032 11.421 9.05109 11.5 9.25 11.5C9.44891 11.5 9.63968 11.421 9.78033 11.2803C9.92098 11.1397 10 10.9489 10 10.75H8.5ZM13 8.75C13 8.55109 12.921 8.36032 12.7803 8.21967C12.6397 8.07902 12.4489 8 12.25 8C12.0511 8 11.8603 8.07902 11.7197 8.21967C11.579 8.36032 11.5 8.55109 11.5 8.75H13ZM11.5 10.75C11.5 10.9489 11.579 11.1397 11.7197 11.2803C11.8603 11.421 12.0511 11.5 12.25 11.5C12.4489 11.5 12.6397 11.421 12.7803 11.2803C12.921 11.1397 13 10.9489 13 10.75H11.5ZM10 0.75C10 0.551088 9.92098 0.360322 9.78033 0.21967C9.63968 0.0790175 9.44891 0 9.25 0C9.05109 0 8.86032 0.0790175 8.71967 0.21967C8.57902 0.360322 8.5 0.551088 8.5 0.75H10ZM8.5 2.75C8.5 2.94891 8.57902 3.13968 8.71967 3.28033C8.86032 3.42098 9.05109 3.5 9.25 3.5C9.44891 3.5 9.63968 3.42098 9.78033 3.28033C9.92098 3.13968 10 2.94891 10 2.75H8.5ZM13 0.75C13 0.551088 12.921 0.360322 12.7803 0.21967C12.6397 0.0790175 12.4489 0 12.25 0C12.0511 0 11.8603 0.0790175 11.7197 0.21967C11.579 0.360322 11.5 0.551088 11.5 0.75H13ZM11.5 2.75C11.5 2.94891 11.579 3.13968 11.7197 3.28033C11.8603 3.42098 12.0511 3.5 12.25 3.5C12.4489 3.5 12.6397 3.42098 12.7803 3.28033C12.921 3.13968 13 2.94891 13 2.75H11.5ZM7.75 5C7.94891 5 8.13968 4.92098 8.28033 4.78033C8.42098 4.63968 8.5 4.44891 8.5 4.25C8.5 4.05109 8.42098 3.86032 8.28033 3.71967C8.13968 3.57902 7.94891 3.5 7.75 3.5V5ZM5.75 3.5C5.55109 3.5 5.36032 3.57902 5.21967 3.71967C5.07902 3.86032 5 4.05109 5 4.25C5 4.44891 5.07902 4.63968 5.21967 4.78033C5.36032 4.92098 5.55109 5 5.75 5V3.5ZM7.75 8C7.94891 8 8.13968 7.92098 8.28033 7.78033C8.42098 7.63968 8.5 7.44891 8.5 7.25C8.5 7.05109 8.42098 6.86032 8.28033 6.71967C8.13968 6.57902 7.94891 6.5 7.75 6.5V8ZM5.75 6.5C5.55109 6.5 5.36032 6.57902 5.21967 6.71967C5.07902 6.86032 5 7.05109 5 7.25C5 7.44891 5.07902 7.63968 5.21967 7.78033C5.36032 7.92098 5.55109 8 5.75 8V6.5ZM15.75 5C15.9489 5 16.1397 4.92098 16.2803 4.78033C16.421 4.63968 16.5 4.44891 16.5 4.25C16.5 4.05109 16.421 3.86032 16.2803 3.71967C16.1397 3.57902 15.9489 3.5 15.75 3.5V5ZM13.75 3.5C13.5511 3.5 13.3603 3.57902 13.2197 3.71967C13.079 3.86032 13 4.05109 13 4.25C13 4.44891 13.079 4.63968 13.2197 4.78033C13.3603 4.92098 13.5511 5 13.75 5V3.5ZM15.75 8C15.9489 8 16.1397 7.92098 16.2803 7.78033C16.421 7.63968 16.5 7.44891 16.5 7.25C16.5 7.05109 16.421 6.86032 16.2803 6.71967C16.1397 6.57902 15.9489 6.5 15.75 6.5V8ZM13.75 6.5C13.5511 6.5 13.3603 6.57902 13.2197 6.71967C13.079 6.86032 13 7.05109 13 7.25C13 7.44891 13.079 7.63968 13.2197 7.78033C13.3603 7.92098 13.5511 8 13.75 8V6.5ZM9.75 3.5H11.75V2H9.75V3.5ZM13 4.75V6.75H14.5V4.75H13ZM11.75 8H9.75V9.5H11.75V8ZM8.5 6.75V4.75H7V6.75H8.5ZM9.75 8C9.257 8 8.963 7.998 8.753 7.97C8.69136 7.9637 8.63083 7.94924 8.573 7.927L7.513 8.987C7.822 9.297 8.197 9.409 8.553 9.457C8.887 9.502 9.3 9.5 9.75 9.5V8ZM7 6.75C7 7.2 6.998 7.613 7.043 7.947C7.091 8.303 7.203 8.678 7.513 8.987L8.573 7.927L8.572 7.924L8.567 7.914C8.54789 7.86005 8.53546 7.80397 8.53 7.747C8.502 7.537 8.5 7.243 8.5 6.75H7ZM13 6.75C13 7.243 12.998 7.537 12.97 7.747C12.9637 7.80864 12.9492 7.86917 12.927 7.927L13.987 8.987C14.297 8.678 14.409 8.303 14.457 7.947C14.502 7.613 14.5 7.2 14.5 6.75H13ZM11.75 9.5C12.2 9.5 12.613 9.502 12.947 9.457C13.303 9.409 13.678 9.297 13.987 8.987L12.927 7.927L12.924 7.928L12.914 7.933C12.8601 7.95211 12.804 7.96454 12.747 7.97C12.537 7.998 12.243 8 11.75 8V9.5ZM11.75 3.5C12.243 3.5 12.537 3.502 12.747 3.53C12.8076 3.53624 12.8671 3.55036 12.924 3.572L12.927 3.573L13.987 2.513C13.678 2.203 13.303 2.091 12.947 2.043C12.613 1.998 12.2 2 11.75 2V3.5ZM14.5 4.75C14.5 4.3 14.502 3.887 14.457 3.553C14.409 3.197 14.297 2.822 13.987 2.513L12.927 3.573L12.928 3.576L12.933 3.586C12.942 3.608 12.957 3.656 12.97 3.753C12.998 3.963 13 4.257 13 4.75H14.5ZM9.75 2C9.3 2 8.887 1.998 8.553 2.043C8.197 2.091 7.822 2.203 7.513 2.513L8.573 3.573L8.576 3.572L8.586 3.567C8.63995 3.54789 8.69603 3.53546 8.753 3.53C8.963 3.502 9.257 3.5 9.75 3.5V2ZM8.5 4.75C8.5 4.257 8.502 3.963 8.53 3.753C8.5363 3.69136 8.55076 3.63083 8.573 3.573L7.513 2.513C7.203 2.822 7.091 3.197 7.043 3.553C6.998 3.887 7 4.3 7 4.75H8.5ZM8.5 8.75V10.75H10V8.75H8.5ZM11.5 8.75V10.75H13V8.75H11.5ZM8.5 0.75V2.75H10V0.75H8.5ZM11.5 0.75V2.75H13V0.75H11.5ZM7.75 3.5H5.75V5H7.75V3.5ZM7.75 6.5H5.75V8H7.75V6.5ZM15.75 3.5H13.75V5H15.75V3.5ZM15.75 6.5H13.75V8H15.75V6.5Z" fill="#141414"/>
</svg>
